<?xml version="1.0" standalone="no"?><!DOCTYPE svg PUBLIC "-//W3C//DTD SVG 1.1//EN" "http://www.w3.org/Graphics/SVG/1.1/DTD/svg11.dtd"><svg t="1510846985942" class="icon" style="" viewBox="0 0 1024 1024" version="1.1" xmlns="http://www.w3.org/2000/svg" p-id="1010" xmlns:xlink="http://www.w3.org/1999/xlink" width="32" height="32"><defs><style type="text/css"></style></defs><path d="M752.881664 194.584576c28.171264 20.035584 53.215232 42.728448 75.127808 68.08576 21.912576 25.35424 40.691712 52.74624 56.346624 82.172928 15.648768 29.425664 27.547648 60.567552 35.683328 93.438976 8.141824 32.866304 12.209152 66.205696 12.209152 100.011008 0 58.227712-11.113472 112.852992-33.339392 163.87584-22.2208 51.024896-52.273152 95.475712-90.15296 133.351424-37.874688 37.878784-82.326528 67.931136-133.351424 90.157056-51.022848 22.221824-105.648128 33.333248-163.874816 33.333248-57.595904 0-111.906816-11.112448-162.935808-33.333248-51.022848-22.22592-95.629312-52.279296-133.818368-90.157056-38.193152-37.874688-68.240384-82.326528-90.15296-133.351424-21.912576-51.022848-32.8704-105.648128-32.8704-163.87584 0-33.178624 3.912704-65.736704 11.74016-97.666048 7.821312-31.930368 18.934784-62.290944 33.338368-91.088896 14.399488-28.803072 32.238592-55.724032 53.528576-80.76288 21.284864-25.043968 45.074432-47.584256 71.36768-67.618816 13.776896-10.016768 28.643328-13.771776 44.61056-11.267072 15.963136 2.50368 28.952576 10.331136 38.970368 23.4752 10.016768 13.149184 13.776896 27.86304 11.272192 44.138496-2.504704 16.280576-10.331136 29.425664-23.48032 39.442432-39.443456 28.797952-69.650432 64.17408-90.621952 106.121216-20.975616 41.946112-31.461376 87.021568-31.461376 135.226368 0 41.324544 7.827456 80.294912 23.48032 116.92032 15.648768 36.624384 37.093376 68.554752 64.32768 95.789056 27.234304 27.234304 59.163648 48.833536 95.789056 64.795648 36.625408 15.967232 75.595776 23.948288 116.916224 23.948288 41.319424 0 80.293888-7.981056 116.919296-23.948288 36.624384-15.962112 68.554752-37.561344 95.789056-64.795648 27.234304-27.234304 48.833536-59.164672 64.796672-95.789056 15.966208-36.625408 23.948288-75.595776 23.948288-116.92032 0-48.832512-11.268096-95.002624-33.80736-138.513408-22.539264-43.51488-54.155264-79.353856-94.849024-107.529216-13.775872-9.39008-22.070272-22.224896-24.88832-38.5024-2.813952-16.280576 0.472064-31.301632 9.862144-45.078528 9.391104-13.145088 22.22592-21.13024 38.5024-23.944192C724.078592 181.907456 739.104768 185.194496 752.881664 194.584576L752.881664 194.584576zM511.529984 541.111296c-16.277504 0-30.206976-5.789696-41.78944-17.371136-11.580416-11.582464-17.371136-25.511936-17.371136-41.792512L452.369408 125.088768c0-16.27648 5.789696-30.360576 17.371136-42.256384 11.582464-11.894784 25.511936-17.844224 41.78944-17.844224 16.903168 0 31.147008 5.94944 42.728448 17.844224 11.585536 11.894784 17.376256 25.979904 17.376256 42.256384l0 356.85888c0 16.280576-5.79072 30.211072-17.376256 41.792512C542.676992 535.3216 528.433152 541.111296 511.529984 541.111296L511.529984 541.111296zM511.529984 541.111296" p-id="1011" fill="#ffffff"></path></svg>